<?xml version="1.0" encoding="UTF-8"?>
<svg version="1.1" xmlns="http://www.w3.org/2000/svg" width="1024" height="1024">
<path d="M0 0 C337.92 0 675.84 0 1024 0 C1024 337.92 1024 675.84 1024 1024 C686.08 1024 348.16 1024 0 1024 C0 686.08 0 348.16 0 0 Z " fill="#E6401F" transform="translate(0,0)"/>
<path d="M0 0 C0.65378128 -0.00014603 1.30756256 -0.00029205 1.9811554 -0.0004425 C4.14551086 0.00025504 6.30978063 0.00803999 8.47412109 0.01586914 C9.97341871 0.01773388 11.47271694 0.01915752 12.97201538 0.02015686 C16.92087482 0.0239776 20.86969756 0.03380411 24.81854248 0.04486084 C28.84695947 0.05508448 32.87538238 0.05965653 36.90380859 0.06469727 C44.81007545 0.07542677 52.71631246 0.09249789 60.62255859 0.11352539 C60.92887207 1.21293457 61.23518555 2.31234375 61.55078125 3.44506836 C64.64380049 14.0317898 69.53552517 21.16527199 78.98974609 26.78149414 C86.9609474 30.81440162 95.20479762 31.58097214 103.85302734 29.23852539 C113.65860188 25.46045865 121.01003006 19.64702823 125.62255859 10.11352539 C126.20605833 8.37186957 126.75140284 6.61699797 127.25927734 4.85180664 C127.64732544 3.51629761 127.64732544 3.51629761 128.04321289 2.15380859 C128.23439697 1.48051514 128.42558105 0.80722168 128.62255859 0.11352539 C135.936537 0.03743577 143.25041325 -0.01509125 150.56469727 -0.05126953 C153.0526918 -0.06635222 155.54065976 -0.08682115 158.02856445 -0.11279297 C161.60553547 -0.14919798 165.18215481 -0.16620645 168.75927734 -0.17944336 C169.87090744 -0.19492722 170.98253754 -0.21041107 172.12785339 -0.22636414 C173.16855484 -0.22659073 174.20925629 -0.22681732 175.28149414 -0.22705078 C176.65050117 -0.23704353 176.65050117 -0.23704353 178.04716492 -0.24723816 C182.02553307 0.31005536 184.59255918 1.95522441 187.24571943 4.93887478 C188.82155071 7.42782377 188.99981098 8.71918703 189.00566864 11.63664913 C189.01472528 12.54372929 189.02378192 13.45080944 189.033113 14.38537687 C189.02778508 15.37807051 189.02245715 16.37076416 189.01696777 17.39353943 C189.02305888 18.45106936 189.02914998 19.50859929 189.03542566 20.59817559 C189.05211846 24.15344915 189.0472708 27.70836702 189.04248047 31.26367188 C189.04981711 33.80784479 189.05840214 36.35201437 189.06814575 38.8961792 C189.08809808 45.0963601 189.09374005 51.2964094 189.09195787 57.49661808 C189.0906508 62.53558413 189.09445154 67.57452097 189.10188293 72.61348152 C189.1039821 74.06434204 189.1060797 75.51520256 189.10817575 76.96606308 C189.10921928 77.68817048 189.11026281 78.41027788 189.11133796 79.15426732 C189.13024422 92.81409815 189.12918889 106.47387529 189.12236863 120.13371379 C189.11679225 132.63319483 189.13762188 145.13247097 189.1707291 157.63190412 C189.20445226 170.46336338 189.2196362 183.29472445 189.21501207 196.12622887 C189.21276606 203.33135904 189.21802969 210.53629979 189.24290466 217.74139214 C189.26609232 224.5154789 189.26335197 231.2890686 189.24297714 238.06318665 C189.23955479 240.55249422 189.24470846 243.04183019 189.25896072 245.53109932 C189.27704647 248.92341312 189.26448197 252.31425962 189.24401855 255.70652771 C189.2565364 256.69699063 189.26905425 257.68745355 189.28195143 258.70793051 C189.22197052 263.32989894 189.14306309 265.42996435 186.27121735 269.20146275 C182.60181291 271.85040012 180.00570918 272.23792823 175.6003418 272.22705078 C174.57951004 272.22697525 173.55867828 272.22689972 172.50691223 272.2268219 C171.40683334 272.22166061 170.30675446 272.21649933 169.17333984 272.21118164 C168.0455864 272.20976669 166.91783295 272.20835175 165.75590515 272.20689392 C162.14892948 272.20129009 158.54201555 272.18873692 154.93505859 272.17602539 C152.49170011 272.17101088 150.04834066 272.16644789 147.60498047 272.16235352 C141.61081872 272.15131942 135.61669307 272.13457754 129.62255859 272.11352539 C129.15253418 271.01339111 128.68250977 269.91325684 128.19824219 268.77978516 C122.93283655 256.52837574 118.10842283 248.82613392 105.62255859 243.11352539 C97.46851691 240.32265751 86.52021173 241.12789255 78.82958984 244.80102539 C70.86962643 249.53473815 66.20342272 255.57454171 62.62255859 264.11352539 C62.02374028 266.51723269 61.78441635 268.63170641 61.62255859 271.11352539 C59.79579788 272.9402861 56.90903363 272.27940805 54.45385742 272.30639648 C53.80985992 272.31457397 53.16586243 272.32275146 52.50234985 272.33117676 C50.36143939 272.35607828 48.22059566 272.37256264 46.07958984 272.38696289 C45.34881414 272.39228657 44.61803844 272.39761024 43.86511803 272.40309525 C39.99382958 272.4298532 36.1225736 272.44921563 32.2512207 272.46362305 C28.25732599 272.48023726 24.26426193 272.52497875 20.27068043 272.57599449 C17.1968037 272.60971171 14.12312249 272.62120553 11.04907799 272.62685013 C9.57748793 272.63355521 8.1059104 272.64875824 6.6345005 272.67274094 C-6.33565962 272.8720028 -6.33565962 272.8720028 -10.26538086 269.70581055 C-13.07149715 266.26166042 -13.5021056 264.73256104 -13.4909668 260.38842773 C-13.49089127 259.40756195 -13.49081573 258.42669617 -13.49073792 257.41610718 C-13.48557663 256.35461456 -13.48041534 255.29312195 -13.47509766 254.19946289 C-13.47368271 253.11468658 -13.47226776 252.02991028 -13.47080994 250.91226196 C-13.46519943 247.43765539 -13.45264513 243.96311258 -13.43994141 240.48852539 C-13.43492776 238.13696382 -13.43036462 235.78540124 -13.42626953 233.43383789 C-13.41522659 227.66037853 -13.3984782 221.88695651 -13.37744141 216.11352539 C-11.40397135 215.66796875 -9.4305013 215.22241211 -7.45703125 214.77685547 C-3.89336855 213.64014831 -1.99014561 211.78843683 0.62255859 209.11352539 C3.17877797 203.89603652 3.34212048 198.81981852 2.62255859 193.11352539 C1.53714891 190.7256241 0.30530897 189.16437741 -1.37744141 187.11352539 C-1.37744141 186.45352539 -1.37744141 185.79352539 -1.37744141 185.11352539 C-2.55113281 184.80608398 -2.55113281 184.80608398 -3.74853516 184.49243164 C-5.26640625 184.08831055 -5.26640625 184.08831055 -6.81494141 183.67602539 C-7.82427734 183.40918945 -8.83361328 183.14235352 -9.87353516 182.86743164 C-12.37744141 182.11352539 -12.37744141 182.11352539 -13.37744141 181.11352539 C-13.46527682 178.89497275 -13.48438749 176.67364043 -13.47509766 174.45336914 C-13.47368271 173.78890274 -13.47226776 173.12443634 -13.47080994 172.43983459 C-13.46519659 170.3101864 -13.45264194 168.180642 -13.43994141 166.05102539 C-13.43492812 164.6102717 -13.43036492 163.16951636 -13.42626953 161.72875977 C-13.41522285 158.19031437 -13.39794932 154.65193 -13.37744141 151.11352539 C-11.38769531 150.62117513 -9.39794922 150.12882487 -7.40820312 149.63647461 C-2.53315064 148.5240963 -2.53315064 148.5240963 0.87255859 145.17602539 C2.96439621 139.42347195 3.2109908 134.20742604 2.62255859 128.11352539 C0.65183124 124.10168756 -1.48637928 121.32196606 -5.37744141 119.11352539 C-8.34744141 118.12352539 -11.31744141 117.13352539 -14.37744141 116.11352539 C-14.37744141 106.87352539 -14.37744141 97.63352539 -14.37744141 88.11352539 C-11.40744141 87.12352539 -8.43744141 86.13352539 -5.37744141 85.11352539 C-3.03482532 83.73425766 -3.03482532 83.73425766 -1.37744141 82.11352539 C-0.82056641 81.61852539 -0.26369141 81.12352539 0.31005859 80.61352539 C3.58814347 76.86714267 2.95077152 71.74836029 2.89990234 67.06274414 C2.52329551 63.05798129 1.38232338 61.01854096 -1.37744141 58.11352539 C-5.38877128 54.88702093 -8.34547229 53.82136506 -13.37744141 53.11352539 C-13.50447373 46.67249671 -13.59188952 40.23179237 -13.65209961 33.78979492 C-13.67720575 31.59956795 -13.71129777 29.40942445 -13.75463867 27.21948242 C-13.81546048 24.06676617 -13.84369064 20.91515986 -13.86572266 17.76196289 C-13.89152908 16.78673676 -13.91733551 15.81151062 -13.94392395 14.80673218 C-13.94577961 10.2837183 -13.88596985 7.11587996 -10.97192383 3.51049805 C-7.09186295 -0.07418603 -5.20750231 -0.00975188 0 0 Z " fill="#FCCD12" transform="translate(167.37744140625,375.886474609375)"/>
<path d="M0 0 C5.71053543 -0.2481016 11.41790846 -0.42904829 17.13256836 -0.54931641 C19.07387955 -0.59946277 21.01481565 -0.66760381 22.95483398 -0.75439453 C39.03004701 -1.45528866 39.03004701 -1.45528866 43.68383789 1.98266602 C45.51255491 4.57843307 46.76037149 7.0824242 48 10 C48.88415738 11.40769865 49.7955826 12.79878323 50.73828125 14.16796875 C51.59796345 15.5067805 52.45601827 16.84663854 53.3125 18.1875 C57.04146401 23.98665944 60.80295104 29.76170042 64.625 35.5 C65.26369019 36.46135864 65.26369019 36.46135864 65.9152832 37.44213867 C67.77882732 40.36201078 67.77882732 40.36201078 70 43 C70.76957031 41.73736328 70.76957031 41.73736328 71.5546875 40.44921875 C72.75335029 38.48318392 73.97194388 36.54110696 75.2434082 34.62109375 C77.97876597 30.45361385 80.36639053 26.3186006 82.44052124 21.77819824 C90.5146035 4.39209752 90.5146035 4.39209752 98 0 C110.12049009 -3.95732143 124.60817687 -1.6116533 137 0 C135.74353332 3.36677485 134.31625734 6.27976322 132.33300781 9.2734375 C131.79774475 10.08619141 131.26248169 10.89894531 130.71099854 11.73632812 C129.84085114 13.0424707 129.84085114 13.0424707 128.953125 14.375 C128.04164703 15.75461914 128.04164703 15.75461914 127.11175537 17.16210938 C125.16205737 20.1108915 123.20610299 23.05546382 121.25 26 C119.9800626 27.91900212 118.71052758 29.83827058 117.44140625 31.7578125 C108.99334046 44.52674415 100.50025977 57.26577432 92 70 C99.38503141 81.65695782 106.81951208 93.28497202 114.5 104.75 C119.29266693 111.91703444 124.05623399 119.10333046 128.79956055 126.30310059 C129.68186482 127.64069596 130.56581305 128.97720843 131.45141602 130.31262207 C132.70373421 132.20167836 133.95017124 134.09448928 135.1953125 135.98828125 C135.57918121 136.56469864 135.96304993 137.14111603 136.35855103 137.73500061 C139 141.77190686 139 141.77190686 139 144 C133.28946457 144.2481016 127.58209154 144.42904829 121.86743164 144.54931641 C119.92612045 144.59946277 117.98518435 144.66760381 116.04516602 144.75439453 C100.05354067 145.45164416 100.05354067 145.45164416 95.4128418 142.17114258 C93.55146814 139.54299411 92.30542333 136.94182612 91 134 C89.70439909 131.93876374 88.37866117 129.89624012 87.02734375 127.87109375 C85.66186556 125.72796068 84.29860661 123.58341213 82.9375 121.4375 C81.57244765 119.28983486 80.20657587 117.14269031 78.83984375 114.99609375 C78.1938623 113.98015137 77.54788086 112.96420898 76.88232422 111.91748047 C74.66223952 108.47649317 72.3666234 105.09195708 70.03344727 101.72680664 C69 100 69 100 69 98 C66.50863026 100.31195011 64.72437194 102.76972815 62.8828125 105.62109375 C62.28162598 106.54776855 61.68043945 107.47444336 61.06103516 108.42919922 C60.42214355 109.42193848 59.78325195 110.41467773 59.125 111.4375 C58.13765869 112.96141357 58.13765869 112.96141357 57.13037109 114.51611328 C55.08385069 117.67543835 53.04190597 120.83769122 51 124 C49.11863159 126.9060758 47.23572289 129.81113842 45.35107422 132.71508789 C44.21577854 134.46459941 43.08194711 136.21506215 41.94970703 137.96655273 C41.18956299 139.13939819 41.18956299 139.13939819 40.4140625 140.3359375 C39.9701416 141.02220215 39.5262207 141.7084668 39.06884766 142.41552734 C38 144 38 144 37 145 C34.1156618 145.08865208 31.25537842 145.11521296 28.37109375 145.09765625 C27.07474754 145.09553383 27.07474754 145.09553383 25.75221252 145.09336853 C22.98060708 145.08775239 20.2090812 145.07519719 17.4375 145.0625 C15.5631522 145.05748708 13.68880315 145.05292381 11.81445312 145.04882812 C7.20960456 145.03777772 2.60481579 145.0205023 -2 145 C-0.75446695 141.65987853 0.64792225 138.78485755 2.63867188 135.83081055 C3.16682495 135.04195969 3.69497803 134.25310883 4.23913574 133.44035339 C4.80990845 132.59765396 5.38068115 131.75495453 5.96875 130.88671875 C6.86116394 129.55590019 6.86116394 129.55590019 7.77160645 128.19819641 C9.67670067 125.35833252 11.58788021 122.52263725 13.5 119.6875 C15.99282549 115.98524253 18.48247857 112.28088084 20.96875 108.57421875 C21.57390442 107.67257492 22.17905884 106.77093109 22.80255127 105.84196472 C26.93102895 99.665768 30.93973692 93.4269689 34.80895996 87.08500671 C37.60260152 82.52663107 40.67052856 78.27985049 44.015625 74.11328125 C45.29603883 71.99252747 45.29603883 71.99252747 44.22644043 69.62849426 C43.08868886 67.19007703 41.86286635 65.05892324 40.36132812 62.83081055 C39.83317505 62.04195969 39.30502197 61.25310883 38.76086426 60.44035339 C38.19009155 59.59765396 37.61931885 58.75495453 37.03125 57.88671875 C36.43630737 56.99950638 35.84136475 56.11229401 35.22839355 55.19819641 C33.32329933 52.35833252 31.41211979 49.52263725 29.5 46.6875 C27.00717452 42.98524255 24.51749182 39.2809007 22.03125 35.57421875 C21.42555176 34.67162323 20.81985352 33.76902771 20.19580078 32.83908081 C16.09292459 26.70044072 12.10565241 20.50160383 8.25695801 14.20036316 C6.35500751 11.09846747 4.37968508 8.11582284 2.22460938 5.18237305 C0 2 0 2 0 0 Z " fill="#F9F2DE" transform="translate(734,466)"/>
<path d="M0 0 C1 1 1 1 1.11352539 4.14282227 C1.11336633 5.53402697 1.10767506 6.92523761 1.09765625 8.31640625 C1.0962413 9.04746078 1.09482635 9.77851532 1.09336853 10.53172302 C1.08775408 12.87535632 1.07519922 15.21889539 1.0625 17.5625 C1.05748686 19.14778508 1.05292363 20.73307166 1.04882812 22.31835938 C1.03777997 26.2122761 1.02050572 30.10612205 1 34 C0.35039307 34.00410889 -0.29921387 34.00821777 -0.96850586 34.01245117 C-3.95904712 34.04568236 -6.94762978 34.11635605 -9.9375 34.1875 C-10.95908203 34.19330078 -11.98066406 34.19910156 -13.03320312 34.20507812 C-20.10741338 34.40848992 -25.27561721 35.71759423 -31 40 C-37.32733623 47.75608958 -36.41455167 58.63282665 -37 68 C-24.79 68 -12.58 68 0 68 C0 78.23 0 88.46 0 99 C-11.88 99.33 -23.76 99.66 -36 100 C-36.33 137.29 -36.66 174.58 -37 213 C-49.21 213 -61.42 213 -74 213 C-74 175.38 -74 137.76 -74 99 C-82.25 99 -90.5 99 -99 99 C-99 88.77 -99 78.54 -99 68 C-90.75 68 -82.5 68 -74 68 C-74.0825 64.16375 -74.165 60.3275 -74.25 56.375 C-74.35795205 39.8081005 -71.26773072 26.8507538 -59.8125 14.25 C-43.19382766 -1.08182824 -21.38757543 -1.55792145 0 0 Z " fill="#F9F3DE" transform="translate(588,398)"/>
<path d="M0 0 C12.21 0 24.42 0 37 0 C37 69.63 37 139.26 37 211 C25.12 211 13.24 211 1 211 C-0.79552722 209.20447278 -0.12259239 206.76508701 -0.12908131 204.37456459 C-0.12616847 203.56037829 -0.12325563 202.74619199 -0.12025452 201.90733337 C-0.12153615 200.61973274 -0.12153615 200.61973274 -0.12284368 199.30611998 C-0.12450112 196.4071029 -0.11897282 193.50814268 -0.11352539 190.60913086 C-0.11324355 188.54004416 -0.11340119 186.47095737 -0.1139679 184.40187073 C-0.11425599 178.76573737 -0.10835733 173.12962509 -0.10139394 167.49349666 C-0.09516239 161.61045738 -0.09455676 155.72741768 -0.09336853 149.84437561 C-0.09025462 138.69545772 -0.08204044 127.54654958 -0.07201904 116.397636 C-0.06085974 103.70861732 -0.05534792 91.01959818 -0.05032361 78.33057582 C-0.03985787 52.22037828 -0.02205696 26.1101901 0 0 Z " fill="#F9F3DF" transform="translate(610,400)"/>
<path d="M0 0 C2.15494745 1.23061053 4.22714204 2.54473511 6.29980469 3.90942383 C7.46781616 4.65107788 7.46781616 4.65107788 8.65942383 5.40771484 C10.30363503 6.45337331 11.94363136 7.50568552 13.57958984 8.56420898 C15.9690525 10.10727569 18.37114922 11.62774542 20.78027344 13.13989258 C24.74685476 15.62992348 28.70419321 18.13414394 32.65869141 20.64331055 C35.83011401 22.65418806 39.00508969 24.65940392 42.1809082 26.66333008 C43.75142866 27.65520366 45.32094049 28.64867622 46.8894043 29.64379883 C51.02642504 32.26616323 55.17979443 34.8562288 59.36230469 37.40551758 C60.23048828 37.93983398 61.09867187 38.47415039 61.99316406 39.0246582 C63.65547576 40.04693545 65.32320624 41.06047097 66.99707031 42.0637207 C71.10241192 44.60176078 74.10913575 46.54748118 76.04980469 51.15942383 C76.63691949 55.77246869 76.2407433 58.70987414 73.54663086 62.53759766 C70.30202872 66.05315662 66.04711278 68.32416554 61.98730469 70.78442383 C60.51716919 71.69683838 60.51716919 71.69683838 59.01733398 72.62768555 C57.00146135 73.87866976 54.98264835 75.1249281 52.9609375 76.36645508 C48.73721411 78.96784929 44.55079675 81.62684304 40.36230469 84.28442383 C38.81442921 85.26146431 37.26625228 86.23802739 35.71777344 87.21411133 C31.68352824 89.75838324 27.65315275 92.30871954 23.62402344 94.86108398 C21.23402763 96.37198444 18.83936217 97.87526478 16.44433594 99.37817383 C13.68619059 101.11224053 10.95599639 102.87787238 8.24902344 104.69067383 C-0.72503588 110.63011233 -0.72503588 110.63011233 -5.38769531 110.97192383 C-9.98198016 109.92410448 -11.71335791 108.55415574 -14.95019531 105.15942383 C-16.28866639 101.14401059 -16.10600286 97.2732196 -16.11132812 93.08569336 C-16.11629303 92.15694397 -16.12125793 91.22819458 -16.12637329 90.27130127 C-16.14099379 87.19493879 -16.14779644 84.11862786 -16.15332031 81.04223633 C-16.15907148 78.90615843 -16.16482922 76.77008055 -16.17059326 74.63400269 C-16.18110267 70.1533789 -16.18694586 65.67277305 -16.19042969 61.19213867 C-16.19591686 55.44971585 -16.21995001 49.70752985 -16.24840164 43.96518135 C-16.26702049 39.55226955 -16.27223321 35.1394149 -16.27376556 30.72646713 C-16.27679389 28.60936055 -16.28482845 26.49225501 -16.29795074 24.37518692 C-16.31499664 21.41392204 -16.31313455 18.45323733 -16.30664062 15.49194336 C-16.31585541 14.61696198 -16.32507019 13.74198059 -16.33456421 12.84048462 C-16.30207342 8.11316367 -16.00683177 5.00887206 -12.95019531 1.15942383 C-9.1858306 -1.66384971 -4.29726923 -1.85221557 0 0 Z " fill="#2E2C2C" transform="translate(238.9501953125,457.840576171875)"/>
<path d="M0 0 C12.54 0 25.08 0 38 0 C38 47.52 38 95.04 38 144 C34.89049471 145.55475264 31.5955297 145.14199524 28.18359375 145.1328125 C27.41193375 145.13376923 26.64027374 145.13472595 25.8452301 145.13571167 C24.21363239 145.13639246 22.58203197 145.1345452 20.95043945 145.13037109 C18.44411179 145.12501413 15.93796275 145.13032319 13.43164062 145.13671875 C11.84895794 145.13605809 10.26627536 145.13477719 8.68359375 145.1328125 C7.92944687 145.13483673 7.17529999 145.13686096 6.39830017 145.13894653 C1.11495624 145.11495624 1.11495624 145.11495624 0 144 C-0.09650437 142.13971966 -0.12187292 140.27572971 -0.12025452 138.41294861 C-0.12162918 137.19993576 -0.12300385 135.98692291 -0.12442017 134.7371521 C-0.12088056 133.38067603 -0.11724575 132.0242002 -0.11352539 130.66772461 C-0.11324352 129.24887596 -0.11340124 127.83002716 -0.1139679 126.41117859 C-0.11425589 122.54771199 -0.1083589 118.68427617 -0.10139394 114.82081676 C-0.09516067 110.78757427 -0.09455662 106.75433115 -0.09336853 102.72108459 C-0.09025514 95.07834532 -0.08204164 87.43562027 -0.07201904 79.79288727 C-0.06085816 71.09411981 -0.05534752 62.39535169 -0.05032361 53.69657886 C-0.03985903 35.79770952 -0.02151345 17.8988597 0 0 Z " fill="#F9F3DF" transform="translate(677,466)"/>
<path d="M0 0 C12.21 0 24.42 0 37 0 C37.02254609 18.75799811 37.04097863 37.51598529 37.05181217 56.27399349 C37.05697537 64.9830416 37.06401851 73.69208071 37.07543945 82.40112305 C37.08538558 89.98913741 37.09185326 97.57714526 37.09408849 105.16516596 C37.09539572 109.18547119 37.09848234 113.20575778 37.10573006 117.22605705 C37.11248915 121.00573984 37.11461719 124.7853962 37.11310768 128.56508446 C37.11338406 129.95630283 37.11538985 131.34752203 37.11920547 132.7387352 C37.12414091 134.63013326 37.12239798 136.52154532 37.12025452 138.41294861 C37.12117631 139.47393233 37.1220981 140.53491606 37.12304783 141.6280508 C37 144 37 144 36 145 C33.41810554 145.10091475 30.863535 145.13971499 28.28125 145.1328125 C27.12163757 145.13424759 27.12163757 145.13424759 25.93859863 145.13571167 C24.30102456 145.13639341 22.66344781 145.13453957 21.02587891 145.13037109 C18.51068079 145.12502271 15.99566127 145.13031626 13.48046875 145.13671875 C11.89322877 145.13605797 10.3059889 145.1347768 8.71875 145.1328125 C7.96146606 145.13483673 7.20418213 145.13686096 6.4239502 145.13894653 C1.11495132 145.11495132 1.11495132 145.11495132 0 144 C-0.09650437 142.13971966 -0.12187292 140.27572971 -0.12025452 138.41294861 C-0.12162918 137.19993576 -0.12300385 135.98692291 -0.12442017 134.7371521 C-0.12088056 133.38067603 -0.11724575 132.0242002 -0.11352539 130.66772461 C-0.11324352 129.24887596 -0.11340124 127.83002716 -0.1139679 126.41117859 C-0.11425589 122.54771199 -0.1083589 118.68427617 -0.10139394 114.82081676 C-0.09516067 110.78757427 -0.09455662 106.75433115 -0.09336853 102.72108459 C-0.09025514 95.07834532 -0.08204164 87.43562027 -0.07201904 79.79288727 C-0.06085816 71.09411981 -0.05534752 62.39535169 -0.05032361 53.69657886 C-0.03985903 35.79770952 -0.02151345 17.8988597 0 0 Z " fill="#F9F3DE" transform="translate(434,466)"/>
<path d="M0 0 C5.90855112 3.51759082 10.52063207 8.95859215 12.625 15.5 C13.57484268 22.78949037 12.78655352 29.34461025 8.625 35.5 C4.19193778 40.34027462 -0.3277563 44.04035728 -7.0234375 44.80078125 C-15.48192604 44.83713579 -21.50724823 43.01892619 -27.796875 37.2109375 C-33.27679781 31.26983306 -33.96527463 25.43716657 -33.69921875 17.4921875 C-33.30716549 13.87396105 -32.46424728 11.48463897 -30.375 8.5 C-29.776875 7.63375 -29.17875 6.7675 -28.5625 5.875 C-21.35260574 -1.9528852 -9.90224358 -4.41612828 0 0 Z " fill="#F9F2DE" transform="translate(705.375,401.5)"/>
<path d="M0 0 C6.43718393 2.83761577 9.54151864 6.58303728 12.625 12.75 C14.63238532 19.36098899 14.46188762 25.70690294 11.5625 32 C8.26123756 37.9143744 4.48583586 41.60566565 -1.8125 44.125 C-10.80035093 45.70181595 -17.02393054 44.59493003 -24.625 39.625 C-29.91268922 34.09696127 -31.6101625 28.80599216 -31.875 21.1875 C-31.66584143 15.57943597 -30.98928071 11.15741453 -27.375 6.75 C-19.27892937 -0.66586798 -10.79883463 -3.75700901 0 0 Z " fill="#F9F2DE" transform="translate(461.375,401.25)"/>
<path d="M0 0 C2.44487362 1.68658261 3.83310519 3.09116071 4.37955773 6.06691253 C4.52099523 8.81098809 4.53747384 11.53227426 4.5146637 14.28001404 C4.52160922 15.33754397 4.52855475 16.3950739 4.53571075 17.48465019 C4.5540555 21.04002808 4.54369527 24.59474434 4.53344727 28.15014648 C4.54050193 30.6943207 4.54924502 33.23849071 4.55955505 35.78265381 C4.57976525 41.98287529 4.58106373 48.18285091 4.57292951 54.38309269 C4.56663289 59.42206521 4.56776342 64.46098419 4.57420158 69.49995613 C4.57510324 70.21678912 4.57600489 70.9336221 4.57693387 71.6721773 C4.57878505 73.12836553 4.58064761 74.58455373 4.58252143 76.04074193 C4.59910611 89.7005939 4.59037519 103.36034263 4.57353585 117.0201884 C4.55883962 129.51967563 4.57346491 142.01892246 4.60230602 154.51837873 C4.63169293 167.34984658 4.6426743 180.18120345 4.63312382 193.01270348 C4.63210125 194.46387833 4.63110664 195.91505321 4.6301403 197.3662281 C4.62942572 198.43725968 4.62942572 198.43725968 4.6286967 199.52992825 C4.62653155 204.56261716 4.63634199 209.59520112 4.65091133 214.62786674 C4.67024826 221.40196936 4.66336683 228.17555354 4.63871193 234.94966125 C4.63368922 237.43896319 4.63723135 239.92829897 4.64986038 242.41757393 C4.66571223 245.8099035 4.65091236 249.20074402 4.62818909 252.59300232 C4.64002482 253.58346524 4.65186054 254.57392816 4.66405493 255.59440511 C4.60094868 260.21578798 4.51998347 262.31724532 1.64823818 266.08793736 C-2.02087734 268.7370868 -4.61698987 269.12440249 -9.0222168 269.11352539 C-10.04304855 269.11344986 -11.06388031 269.11337433 -12.11564636 269.11329651 C-13.21572525 269.10813522 -14.31580414 269.10297394 -15.44921875 269.09765625 C-17.14084892 269.09553383 -17.14084892 269.09553383 -18.86665344 269.09336853 C-22.47362912 269.0877647 -26.08054304 269.07521153 -29.6875 269.0625 C-32.13085848 269.05748549 -34.57421793 269.0529225 -37.01757812 269.04882812 C-43.01173987 269.03779403 -49.00586552 269.02105215 -55 269 C-55.70177368 267.35197388 -55.70177368 267.35197388 -56.41772461 265.6706543 C-57.71584583 262.65919735 -59.08015531 259.73536774 -60.5625 256.8125 C-60.97628906 255.99394531 -61.39007813 255.17539062 -61.81640625 254.33203125 C-62.20699219 253.56246094 -62.59757812 252.79289063 -63 252 C-63.66757169 250.66711956 -64.33456023 249.33394608 -65 248 C-64.34 248 -63.68 248 -63 248 C-62.67 248.66 -62.34 249.32 -62 250 C-60.68 249.67 -59.36 249.34 -58 249 C-57.93941406 249.58007812 -57.87882812 250.16015625 -57.81640625 250.7578125 C-57.33983439 255.20092863 -56.78991334 259.59905423 -56 264 C-52.04 264 -48.08 264 -44 264 C-44 263.34 -44 262.68 -44 262 C-30.47 262 -16.94 262 -3 262 C-2.67 261.01 -2.34 260.02 -2 259 C-1.34 259 -0.68 259 0 259 C0.144375 258.401875 0.28875 257.80375 0.4375 257.1875 C0.8872439 255.43849596 1.42892341 253.71322977 2 252 C2.09091713 250.59806797 2.12730872 249.19220889 2.12863445 247.78733253 C2.13347112 246.4924 2.13347112 246.4924 2.1384055 245.17130721 C2.1368569 244.2223921 2.1353083 243.27347699 2.13371277 242.29580688 C2.1371111 240.78429757 2.1371111 240.78429757 2.14057809 239.24225271 C2.14693202 235.84980411 2.14608783 232.45739532 2.14526367 229.06494141 C2.14825429 226.63914437 2.15165659 224.21334781 2.15544128 221.78755188 C2.16337476 215.87268626 2.16649637 209.95783004 2.16705366 204.04296018 C2.16752858 199.23567374 2.16958211 194.42839059 2.17275429 189.62110519 C2.1815624 175.99578677 2.18617343 162.37047623 2.18542381 148.74515493 C2.18538386 148.01037685 2.1853439 147.27559877 2.18530273 146.51855469 C2.18524141 145.415044 2.18524141 145.415044 2.18517885 144.28924017 C2.18477236 132.3652871 2.19434228 120.44136561 2.2084411 108.51742168 C2.22279875 96.27813599 2.22971162 84.03886572 2.22884732 71.79957139 C2.22851514 64.92648319 2.23127168 58.05342807 2.24202538 51.18034744 C2.25207231 44.71748731 2.25180126 38.25467909 2.24450874 31.7918148 C2.24346005 29.41700196 2.24584255 27.04218481 2.2518692 24.66737938 C2.2595519 21.43088985 2.25496894 18.19464443 2.24723816 14.9581604 C2.25238172 14.01370674 2.25752529 13.06925308 2.26282471 12.0961796 C2.23913726 7.62269381 2.1289807 4.06014497 0 0 Z " fill="#FCDA24" transform="translate(352,379)"/>
<path d="M0 0 C0.33 0 0.66 0 1 0 C1 47.52 1 95.04 1 144 C-2.11954128 145.55977064 -5.42959384 145.12104126 -8.8515625 145.09765625 C-9.62559418 145.0962413 -10.39962585 145.09482635 -11.19711304 145.09336853 C-13.67311442 145.08776403 -16.14902588 145.07521083 -18.625 145.0625 C-20.30208203 145.05748558 -21.97916547 145.05292257 -23.65625 145.04882812 C-27.77086806 145.03779315 -31.88541878 145.02052554 -36 145 C-36.33 144.34 -36.66 143.68 -37 143 C-19.675 142.505 -19.675 142.505 -2 142 C-2 106.36 -2 70.72 -2 34 C-1.67 34 -1.34 34 -1 34 C-0.67 22.78 -0.34 11.56 0 0 Z " fill="#F0D0BC" transform="translate(714,466)"/>
<path d="M0 0 C0.65378128 -0.00014603 1.30756256 -0.00029205 1.9811554 -0.0004425 C4.14551086 0.00025504 6.30978063 0.00803999 8.47412109 0.01586914 C9.97341871 0.01773388 11.47271694 0.01915752 12.97201538 0.02015686 C16.92087482 0.0239776 20.86969756 0.03380411 24.81854248 0.04486084 C28.84695947 0.05508448 32.87538238 0.05965653 36.90380859 0.06469727 C44.81007545 0.07542677 52.71631246 0.09249789 60.62255859 0.11352539 C60.62255859 1.76352539 60.62255859 3.41352539 60.62255859 5.11352539 C57.18336215 6.16374435 54.03462924 6.23430137 50.44873047 6.22705078 C49.20063599 6.22697525 47.9525415 6.22689972 46.66662598 6.2268219 C45.30818645 6.22171344 43.94974732 6.21649742 42.59130859 6.21118164 C41.194133 6.2093149 39.79695675 6.20789221 38.39978027 6.20689392 C34.72538437 6.20308139 31.05102818 6.19326667 27.37664795 6.18218994 C23.64221733 6.17197691 19.9077804 6.16738902 16.17333984 6.16235352 C9.60500559 6.15278797 3.03670088 6.13829372 -3.53161621 6.12025452 C-5.81355267 6.11485874 -8.09549857 6.11352539 -10.37744141 6.11352539 C-11.53035825 8.41935908 -11.53141478 9.81219426 -11.58276367 12.37963867 C-11.60270889 13.2604007 -11.62265411 14.14116272 -11.64320374 15.0486145 C-11.65991623 16.00073822 -11.67662872 16.95286194 -11.69384766 17.93383789 C-11.71462875 18.90763397 -11.73540985 19.88143005 -11.75682068 20.88473511 C-11.82232738 24.00259186 -11.88120638 27.12053442 -11.93994141 30.23852539 C-11.98312556 32.34921143 -12.02673981 34.45988872 -12.07080078 36.57055664 C-12.17800987 41.75145489 -12.27977418 46.93243896 -12.37744141 52.11352539 C-12.70744141 52.11352539 -13.03744141 52.11352539 -13.37744141 52.11352539 C-13.50449221 45.81491701 -13.59189701 39.51664049 -13.65209961 33.21704102 C-13.67720304 31.07531383 -13.71129308 28.93367198 -13.75463867 26.79223633 C-13.81547291 23.70901409 -13.84369322 20.62692696 -13.86572266 17.54321289 C-13.89152908 16.58986053 -13.91733551 15.63650818 -13.94392395 14.65426636 C-13.94580157 10.17726155 -13.85409512 7.08958578 -10.97192383 3.52416992 C-7.09509224 -0.07796004 -5.21520868 -0.00976631 0 0 Z " fill="#FAD61B" transform="translate(167.37744140625,375.886474609375)"/>
<path d="M0 0 C1.9375 1.8125 1.9375 1.8125 2.375 4.25 C1.9387965 6.80490622 1.25268076 8.59313247 -0.0625 10.8125 C-0.68125 10.6475 -1.3 10.4825 -1.9375 10.3125 C-4.02313386 9.73615356 -4.02313386 9.73615356 -6.0625 9.8125 C-6.51625 10.3075 -6.97 10.8025 -7.4375 11.3125 C-9.0625 12.8125 -9.0625 12.8125 -13.0625 12.8125 C-13.11148438 12.17441406 -13.16046875 11.53632813 -13.2109375 10.87890625 C-13.28570312 10.05261719 -13.36046875 9.22632813 -13.4375 8.375 C-13.54191406 7.13943359 -13.54191406 7.13943359 -13.6484375 5.87890625 C-13.78507813 5.19699219 -13.92171875 4.51507813 -14.0625 3.8125 C-14.7225 3.4825 -15.3825 3.1525 -16.0625 2.8125 C-16.3925 34.8225 -16.7225 66.8325 -17.0625 99.8125 C-17.3925 99.8125 -17.7225 99.8125 -18.0625 99.8125 C-18.10878627 87.34748247 -18.14435032 74.88248529 -18.16612434 62.41739941 C-18.17657337 56.62971657 -18.19075299 50.84209242 -18.21337891 45.05444336 C-18.23506737 39.47182448 -18.2470602 33.88926214 -18.25225449 28.30660439 C-18.25595743 26.17389345 -18.2631881 24.04118571 -18.27396011 21.90849876 C-18.28842186 18.92745588 -18.29048017 15.94664834 -18.28955078 12.96557617 C-18.29674133 12.0786911 -18.30393188 11.19180603 -18.31134033 10.27804565 C-18.308591 9.46616287 -18.30584167 8.65428009 -18.30300903 7.8177948 C-18.30577441 6.76003735 -18.30577441 6.76003735 -18.30859566 5.68091106 C-18.0625 3.8125 -18.0625 3.8125 -16.0625 0.8125 C-11.07503601 -2.34025208 -5.36754836 -2.08129426 0 0 Z " fill="#211F20" transform="translate(241.0625,460.1875)"/>
<path d="M0 0 C0.33 0 0.66 0 1 0 C1.13171589 14.95350992 1.26215497 29.9070306 1.39115143 44.86056423 C1.4511007 51.80670627 1.51143847 58.75284449 1.57275391 65.69897461 C1.63210617 72.42283871 1.69029241 79.14671215 1.74781799 85.87059212 C1.76976682 88.41494128 1.79208359 90.9592873 1.81480408 93.50362968 C1.961832 110.00318708 2.0210161 126.49973058 2 143 C12.89 143 23.78 143 35 143 C35.33 143.66 35.66 144.32 36 145 C31.03377651 145.02465098 26.06758834 145.04283649 21.10131836 145.05493164 C19.41055684 145.0599719 17.71979971 145.06680405 16.02905273 145.07543945 C13.60399293 145.08751857 11.17899056 145.09323123 8.75390625 145.09765625 C7.61327477 145.10539818 7.61327477 145.10539818 6.44960022 145.11329651 C4.6326743 145.11349238 2.81586873 145.06197277 1 145 C0 144 0 144 -0.12304783 141.6280508 C-0.12212604 140.56706708 -0.12120424 139.50608335 -0.12025452 138.41294861 C-0.12162918 137.19993576 -0.12300385 135.98692291 -0.12442017 134.7371521 C-0.12088056 133.38067603 -0.11724575 132.0242002 -0.11352539 130.66772461 C-0.11324352 129.24887596 -0.11340124 127.83002716 -0.1139679 126.41117859 C-0.11425589 122.54771199 -0.1083589 118.68427617 -0.10139394 114.82081676 C-0.09516067 110.78757427 -0.09455662 106.75433115 -0.09336853 102.72108459 C-0.09025514 95.07834532 -0.08204164 87.43562027 -0.07201904 79.79288727 C-0.06085816 71.09411981 -0.05534752 62.39535169 -0.05032361 53.69657886 C-0.03985903 35.79771116 -0.02225943 17.89885672 0 0 Z " fill="#FEE6D4" transform="translate(434,466)"/>
<path d="M0 0 C16.83 0 33.66 0 51 0 C51 0.33 51 0.66 51 1 C34.5 1 18 1 1 1 C1 1.66 1 2.32 1 3 C18.16 3 35.32 3 53 3 C52 5 52 5 50.24700928 5.62364197 C47.78810159 6.03549147 45.54073356 6.0795531 43.04785156 6.02172852 C42.06713684 6.00163223 41.08642212 5.98153595 40.07598877 5.96083069 C39.02481873 5.93379562 37.97364868 5.90676056 36.890625 5.87890625 C35.80867859 5.85529526 34.72673218 5.83168427 33.61199951 5.80735779 C30.15786317 5.73081291 26.7039562 5.64674869 23.25 5.5625 C20.90756329 5.50927016 18.5651154 5.45652982 16.22265625 5.40429688 C10.48162905 5.27521013 4.74077209 5.13995007 -1 5 C-0.67 3.35 -0.34 1.7 0 0 Z " fill="#FED024" transform="translate(296,376)"/>
<path d="M0 0 C0 0.99 0 1.98 0 3 C-3.86292371 5.57528248 -7.08946878 5.29454471 -11.5625 5.25 C-12.34302734 5.25773437 -13.12355469 5.26546875 -13.92773438 5.2734375 C-19.74664502 5.25335498 -19.74664502 5.25335498 -22 3 C-20.95199219 3.01160156 -19.90398437 3.02320313 -18.82421875 3.03515625 C-17.44531428 3.04453655 -16.06640789 3.0536365 -14.6875 3.0625 C-13.99720703 3.07087891 -13.30691406 3.07925781 -12.59570312 3.08789062 C-9.4516975 3.10307906 -7.00579981 3.00193327 -4 2 C-20.83 1.67 -37.66 1.34 -55 1 C-55 0.34 -55 -0.32 -55 -1 C-47.97111532 -1.1938487 -40.94195272 -1.37119636 -33.91235352 -1.53710938 C-31.52130728 -1.5954869 -29.13034995 -1.65763332 -26.73950195 -1.72363281 C-23.30175972 -1.81787621 -19.86392505 -1.89853526 -16.42578125 -1.9765625 C-15.35789871 -2.00875885 -14.29001617 -2.0409552 -13.18977356 -2.0741272 C-12.18911362 -2.09429901 -11.18845367 -2.11447083 -10.1574707 -2.13525391 C-9.28032913 -2.15746002 -8.40318756 -2.17966614 -7.49946594 -2.20254517 C-4.68273252 -1.97429011 -2.56012609 -1.16569466 0 0 Z " fill="#F6D308" transform="translate(352,378)"/>
<path d="M0 0 C1.73431274 0.00616333 1.73431274 0.00616333 3.50366211 0.01245117 C4.75598633 0.01438477 6.00831055 0.01631836 7.29858398 0.01831055 C9.26988281 0.03667969 9.26988281 0.03667969 11.28100586 0.05541992 C12.59907227 0.05606445 13.91713867 0.05670898 15.27514648 0.05737305 C25.07841463 0.1028287 25.07841463 0.1028287 26.21850586 1.24291992 C26.30694379 3.69122419 26.33379338 6.11112591 26.31616211 8.55932617 C26.31474716 9.29038071 26.31333221 10.02143524 26.31187439 10.77464294 C26.30625994 13.11827624 26.29370508 15.46181531 26.28100586 17.80541992 C26.27599272 19.390705 26.27142949 20.97599158 26.26733398 22.5612793 C26.25713507 26.45522535 26.23756273 30.34896669 26.21850586 34.24291992 C18.62850586 34.24291992 11.03850586 34.24291992 3.21850586 34.24291992 C3.21850586 33.91291992 3.21850586 33.58291992 3.21850586 33.24291992 C10.14850586 33.24291992 17.07850586 33.24291992 24.21850586 33.24291992 C24.21850586 23.01291992 24.21850586 12.78291992 24.21850586 2.24291992 C14.64850586 2.24291992 5.07850586 2.24291992 -4.78149414 2.24291992 C-2.78149414 0.24291992 -2.78149414 0.24291992 0 0 Z " fill="#F5F1E8" transform="translate(562.781494140625,397.757080078125)"/>
<path d="M0 0 C2.31 0 4.62 0 7 0 C6.03315616 2.80384714 5.11312947 3.92215744 2.64794922 5.6184082 C-2.52214742 7.57648456 -7.26095879 7.37121967 -12.7421875 7.29296875 C-13.86569611 7.28872391 -14.98920471 7.28447906 -16.14675903 7.28010559 C-19.72308663 7.2633589 -23.29884369 7.22571296 -26.875 7.1875 C-29.30467934 7.17244803 -31.73436755 7.15876052 -34.1640625 7.14648438 C-40.10956854 7.11346846 -46.0547435 7.0633085 -52 7 C-52 6.67 -52 6.34 -52 6 C-36.49 5.67 -20.98 5.34 -5 5 C-10.61 4.67 -16.22 4.34 -22 4 C-21.67 3.34 -21.34 2.68 -21 2 C-19.80375 2.020625 -18.6075 2.04125 -17.375 2.0625 C-14.7480516 2.07173356 -12.54118563 1.91572797 -9.9375 1.4375 C-6.43066811 0.91520589 -3.4726031 1.37493144 0 2 C0 1.34 0 0.68 0 0 Z " fill="#FDD323" transform="translate(349,641)"/>
<path d="M0 0 C12.54 0 25.08 0 38 0 C38 0.99 38 1.98 38 3 C25.13 3 12.26 3 -1 3 C-0.67 2.01 -0.34 1.02 0 0 Z " fill="#F3DCCB" transform="translate(733,608)"/>
<path d="M0 0 C0.99 0 1.98 0 3 0 C3 0.66 3 1.32 3 2 C15.21 2 27.42 2 40 2 C40 2.66 40 3.32 40 4 C27.46 4 14.92 4 2 4 C2 9.61 2 15.22 2 21 C1.67 21 1.34 21 1 21 C0.67 15.72 0.34 10.44 0 5 C-1.65 5 -3.3 5 -5 5 C-5 4.34 -5 3.68 -5 3 C-3.68 3 -2.36 3 -1 3 C-0.67 2.01 -0.34 1.02 0 0 Z " fill="#E0482A" transform="translate(674,462)"/>
<path d="M0 0 C13.53 0 27.06 0 41 0 C41.495 1.485 41.495 1.485 42 3 C28.47 3 14.94 3 1 3 C0.67 2.01 0.34 1.02 0 0 Z " fill="#EDFAEF" transform="translate(831,607)"/>
<path d="M0 0 C0.33 0 0.66 0 1 0 C1 10.56 1 21.12 1 32 C0.34 32 -0.32 32 -1 32 C-0.01 33.32 0.98 34.64 2 36 C0.68 37.32 -0.64 38.64 -2 40 C-2.66 39.01 -3.32 38.02 -4 37 C-3.67 36.34 -3.34 35.68 -3 35 C-3.66 34.67 -4.32 34.34 -5 34 C-5 33.34 -5 32.68 -5 32 C-4.01 32 -3.02 32 -2 32 C-0.87816292 28.63448877 -0.79199032 25.90939768 -0.68359375 22.36328125 C-0.64169922 21.06455078 -0.59980469 19.76582031 -0.55664062 18.42773438 C-0.51683013 17.05599239 -0.47711784 15.68424756 -0.4375 14.3125 C-0.39429165 12.92902355 -0.35067661 11.54555973 -0.30664062 10.16210938 C-0.20041972 6.77484281 -0.09837642 3.38750201 0 0 Z " fill="#DB4626" transform="translate(485,466)"/>
<path d="M0 0 C0.99 0.33 1.98 0.66 3 1 C3 2.32 3 3.64 3 5 C14.22 5 25.44 5 37 5 C37 5.33 37 5.66 37 6 C36.19369141 6.02505615 35.38738281 6.0501123 34.55664062 6.07592773 C30.87096125 6.1926268 27.18549148 6.31501591 23.5 6.4375 C21.59734375 6.49647461 21.59734375 6.49647461 19.65625 6.55664062 C11.91576858 6.80332961 11.91576858 6.80332961 4.21875 7.59765625 C1 8 1 8 -1 7 C-0.67 4.69 -0.34 2.38 0 0 Z " fill="#D43214" transform="translate(551,392)"/>
<path d="M0 0 C1.32 1.32 2.64 2.64 4 4 C2.3479815 9.01540945 -0.56970958 13.02449426 -3.5625 17.3125 C-4.06974609 18.05306641 -4.57699219 18.79363281 -5.09960938 19.55664062 C-7.88467156 23.58033233 -7.88467156 23.58033233 -9 25 C-9.33 25 -9.66 25 -10 25 C-10 23.35 -10 21.7 -10 20 C-9.34 20 -8.68 20 -8 20 C-8 19.01 -8 18.02 -8 17 C-7.01 17 -6.02 17 -5 17 C-5.33 15.35 -5.66 13.7 -6 12 C-4.68 11.67 -3.36 11.34 -2 11 C-2 9.68 -2 8.36 -2 7 C-1.34 7 -0.68 7 0 7 C0 4.69 0 2.38 0 0 Z " fill="#D83516" transform="translate(776,532)"/>
<path d="M0 0 C0.66 0.33 1.32 0.66 2 1 C2 1.66 2 2.32 2 3 C3.32 3.66 4.64 4.32 6 5 C6 6.32 6 7.64 6 9 C7.4166747 10.7511573 7.4166747 10.7511573 9 12 C5.04093183 10.56691865 1.71281819 8.66858051 -1.8125 6.375 C-2.78832031 5.74335938 -3.76414063 5.11171875 -4.76953125 4.4609375 C-5.50558594 3.97882813 -6.24164063 3.49671875 -7 3 C-5 2 -5 2 -1 2 C-0.67 1.34 -0.34 0.68 0 0 Z " fill="#F7D220" transform="translate(251,459)"/>
<path d="M0 0 C0.33 0 0.66 0 1 0 C0.83628906 1.26585937 0.67257813 2.53171875 0.50390625 3.8359375 C-0.32011975 12.07619752 -0.10548588 20.35386742 -0.0625 28.625 C-0.05747477 30.31380076 -0.05291368 32.00260296 -0.04882812 33.69140625 C-0.03790399 37.79430711 -0.0206958 41.89713727 0 46 C-0.66 46 -1.32 46 -2 46 C-2.0493933 39.93108308 -2.08571643 33.86228287 -2.10986328 27.79321289 C-2.11992835 25.728088 -2.13358154 23.66297737 -2.15087891 21.59790039 C-2.17510493 18.63163736 -2.18647797 15.66556256 -2.1953125 12.69921875 C-2.20563507 11.7741301 -2.21595764 10.84904144 -2.22659302 9.8959198 C-2.22674408 9.03525406 -2.22689514 8.17458832 -2.22705078 7.2878418 C-2.231492 6.53061325 -2.23593323 5.7733847 -2.24050903 4.99320984 C-2 3 -2 3 0 0 Z " fill="#F7C90A" transform="translate(157,381)"/>
<path d="M0 0 C0.66 0 1.32 0 2 0 C1.98839844 1.31355469 1.97679687 2.62710937 1.96484375 3.98046875 C1.95546172 5.71614441 1.94636196 7.45182161 1.9375 9.1875 C1.92912109 10.05181641 1.92074219 10.91613281 1.91210938 11.80664062 C1.89584892 16.05062026 2.12914964 19.83847737 3 24 C2.96559203 26.08565207 2.85903247 28.17112889 2.6875 30.25 C2.60886719 31.30703125 2.53023438 32.3640625 2.44921875 33.453125 C2.30097656 34.29359375 2.15273438 35.1340625 2 36 C1.01 36.495 1.01 36.495 0 37 C0 24.79 0 12.58 0 0 Z " fill="#EE422A" transform="translate(358,384)"/>
<path d="M0 0 C0.66 0 1.32 0 2 0 C2.33 0.66 2.66 1.32 3 2 C4.32 1.67 5.64 1.34 7 1 C7.06058594 1.58007812 7.12117188 2.16015625 7.18359375 2.7578125 C7.66016561 7.20092863 8.21008666 11.59905423 9 16 C10.65 16.33 12.3 16.66 14 17 C13.360625 17.12375 12.72125 17.2475 12.0625 17.375 C11.381875 17.58125 10.70125 17.7875 10 18 C9.67 18.66 9.34 19.32 9 20 C8.68546875 19.14277344 8.3709375 18.28554688 8.046875 17.40234375 C5.75826654 11.28789885 3.47503665 5.53431763 0 0 Z " fill="#F8D31C" transform="translate(287,627)"/>
<path d="M0 0 C1.32 1.32 2.64 2.64 4 4 C-1.08796758 5.66299329 -5.40232856 6.27157596 -10.8125 6.25 C-12.11832031 6.25515625 -13.42414063 6.2603125 -14.76953125 6.265625 C-18 6 -18 6 -20 4 C-13.07 4 -6.14 4 1 4 C1 3.34 1 2.68 1 2 C-0.65 2 -2.3 2 -4 2 C-2.68 1.34 -1.36 0.68 0 0 Z " fill="#ED3A29" transform="translate(271,399)"/>
<path d="M0 0 C0.66 0.66 1.32 1.32 2 2 C1.525625 2.45375 1.05125 2.9075 0.5625 3.375 C-1.09027808 4.93258204 -1.09027808 4.93258204 -2 7 C-1.34 7.33 -0.68 7.66 0 8 C0 8.66 0 9.32 0 10 C-0.66 10 -1.32 10 -2 10 C-2 9.34 -2 8.68 -2 8 C-5.6678066 9.2226022 -5.88887357 10.10903675 -7.625 13.4375 C-8.05039062 14.24058594 -8.47578125 15.04367187 -8.9140625 15.87109375 C-9.61471902 17.24468297 -10.31041072 18.62082143 -11 20 C-11.66 19.01 -12.32 18.02 -13 17 C-11.21558282 14.34920952 -9.42127357 11.70526749 -7.625 9.0625 C-7.11710938 8.30775391 -6.60921875 7.55300781 -6.0859375 6.77539062 C-5.35117187 5.69741211 -5.35117187 5.69741211 -4.6015625 4.59765625 C-4.15119629 3.93258057 -3.70083008 3.26750488 -3.23681641 2.58227539 C-2 1 -2 1 0 0 Z " fill="#D73314" transform="translate(838,519)"/>
<path d="M0 0 C3.82516038 3.46766876 6.45754712 7.45579194 9.25 11.75 C9.70890625 12.44738281 10.1678125 13.14476562 10.640625 13.86328125 C11.76465406 15.57274211 12.88291224 17.28599512 14 19 C13.67 19.66 13.34 20.32 13 21 C11.35 19.02 9.7 17.04 8 15 C7.01 15.495 7.01 15.495 6 16 C5.73445312 15.26394531 5.46890625 14.52789062 5.1953125 13.76953125 C4.84210937 12.79371094 4.48890625 11.81789063 4.125 10.8125 C3.60292969 9.36810547 3.60292969 9.36810547 3.0703125 7.89453125 C2.09009512 5.24365141 1.06279566 2.6186902 0 0 Z " fill="#D13517" transform="translate(751,494)"/>
<path d="M0 0 C3.89447555 3.48691415 6.41491395 7.5265736 9.125 11.9375 C9.56714844 12.64068359 10.00929688 13.34386719 10.46484375 14.06835938 C12.66909036 17.62112544 14.61712557 21.03006273 16 25 C13.4000702 22.48972295 11.00908773 20.0136316 9 17 C9 16.34 9 15.68 9 15 C8.01 14.67 7.02 14.34 6 14 C5.30562253 12.00945124 4.64389782 10.00744615 4 8 C2.68457624 5.98817543 1.3540932 3.98600337 0 2 C0 1.34 0 0.68 0 0 Z " fill="#CC3417" transform="translate(810,577)"/>
<path d="M0 0 C0.66 0.33 1.32 0.66 2 1 C1.34 1.66 0.68 2.32 0 3 C0.33 3.99 0.66 4.98 1 6 C0.34 6 -0.32 6 -1 6 C-1 6.66 -1 7.32 -1 8 C-0.34 8.33 0.32 8.66 1 9 C-1.97 8.505 -1.97 8.505 -5 8 C-5 7.34 -5 6.68 -5 6 C-6.98 6.66 -8.96 7.32 -11 8 C-8.83385197 5.69125289 -6.60793392 3.94709819 -3.9375 2.25 C-2.89916016 1.57710937 -2.89916016 1.57710937 -1.83984375 0.890625 C-1.23269531 0.59671875 -0.62554687 0.3028125 0 0 Z " fill="#F4D429" transform="translate(289,535)"/>
<path d="M0 0 C1.65 0.33 3.3 0.66 5 1 C5 1.66 5 2.32 5 3 C5.66 3.33 6.32 3.66 7 4 C4.71439353 5.5306999 2.42237333 7.04965044 0.125 8.5625 C-0.52597656 9.00013672 -1.17695313 9.43777344 -1.84765625 9.88867188 C-3.52625497 10.98754836 -5.26023387 12.0007818 -7 13 C-7.66 12.67 -8.32 12.34 -9 12 C-8.05125 11.4225 -7.1025 10.845 -6.125 10.25 C-3.23865902 8.17183449 -2.15904259 7.24531925 -1 4 C-0.67 4.66 -0.34 5.32 0 6 C1.33333333 3 1.33333333 3 0 0 Z " fill="#2A251B" transform="translate(288,528)"/>
<path d="M0 0 C0.66 1.32 1.32 2.64 2 4 C1.01 4.66 0.02 5.32 -1 6 C-1.268125 6.66 -1.53625 7.32 -1.8125 8 C-3 10 -3 10 -5.875 11.3125 C-8.94782994 11.98852259 -10.10508448 11.87098108 -13 11 C-12.39671875 10.62488281 -11.7934375 10.24976563 -11.171875 9.86328125 C-6.6901007 6.99349996 -3.03350913 4.48431785 0 0 Z " fill="#DA3718" transform="translate(472,434)"/>
<path d="M0 0 C-0.58007812 0.28875 -1.16015625 0.5775 -1.7578125 0.875 C-3.15271129 1.57487953 -4.5440591 2.28194156 -5.9296875 3 C-9.89080934 5.03623934 -13.75600881 6.61823543 -18 8 C-18.99 8.66 -19.98 9.32 -21 10 C-19.55134433 6.61980343 -17.91780427 4.26940332 -15 2 C-11.9375 1.875 -11.9375 1.875 -9 2 C-5.5647952 -0.29013653 -4.014669 -0.17842973 0 0 Z " fill="#E24318" transform="translate(256,621)"/>
<path d="M0 0 C2.20352938 3.93487389 4 8.4501079 4 13 C3.34 13 2.68 13 2 13 C1.67 14.98 1.34 16.96 1 19 C0.67 19 0.34 19 0 19 C-0.19600577 16.77156512 -0.38146569 14.54220107 -0.5625 12.3125 C-0.66691406 11.07113281 -0.77132812 9.82976562 -0.87890625 8.55078125 C-0.98493841 5.44164467 -0.77228525 2.99189028 0 0 Z " fill="#F6E8D7" transform="translate(515,436)"/>
<path d="M0 0 C1.65 0.33 3.3 0.66 5 1 C5.33 2.32 5.66 3.64 6 5 C5.34 5 4.68 5 4 5 C4 5.66 4 6.32 4 7 C0.06326356 5.68775452 -2.22719294 4.08089673 -5 1 C-2.525 1.99 -2.525 1.99 0 3 C0 2.01 0 1.02 0 0 Z " fill="#F7D121" transform="translate(307,496)"/>
<path d="M0 0 C0.66 0.33 1.32 0.66 2 1 C1.67 2.98 1.34 4.96 1 7 C-0.32 6.67 -1.64 6.34 -3 6 C-3 7.65 -3 9.3 -3 11 C-7.455 10.01 -7.455 10.01 -12 9 C-8 7 -8 7 -4.875 6.1875 C-1.78407606 5.2706973 -1.78407606 5.2706973 -0.625 2.375 C-0.41875 1.59125 -0.2125 0.8075 0 0 Z " fill="#DC4015" transform="translate(356,640)"/>
<path d="M0 0 C0.66 0 1.32 0 2 0 C3.36363208 1.97946592 4.69418644 3.9819245 6 6 C7.62351109 7.79394446 7.62351109 7.79394446 9 9 C6.69 9 4.38 9 2 9 C1.67 7.68 1.34 6.36 1 5 C0.01 5 -0.98 5 -2 5 C-1.34 3.35 -0.68 1.7 0 0 Z " fill="#DD3F18" transform="translate(152,639)"/>
<path d="M0 0 C2 2 2 2 2.1953125 5.2578125 C2.16050781 7.17207031 2.16050781 7.17207031 2.125 9.125 C2.10695312 10.40632812 2.08890625 11.68765625 2.0703125 13.0078125 C2.04710937 13.99523437 2.02390625 14.98265625 2 16 C0.68 16.33 -0.64 16.66 -2 17 C-2 16.01 -2 15.02 -2 14 C-1.34 14 -0.68 14 0 14 C0 9.38 0 4.76 0 0 Z " fill="#EC3A2A" transform="translate(168,503)"/>
<path d="M0 0 C2.475 0.99 2.475 0.99 5 2 C5 1.34 5 0.68 5 0 C5.66 0 6.32 0 7 0 C7 1.65 7 3.3 7 5 C8.32 5.66 9.64 6.32 11 7 C7.18634321 7.35475877 5.41557542 7.2619932 2.125 5.1875 C0 3 0 3 0 0 Z " fill="#252224" transform="translate(225,561)"/>
<path d="M0 0 C-0.825 0.37125 -1.65 0.7425 -2.5 1.125 C-3.7375 2.053125 -3.7375 2.053125 -5 3 C-5.41746608 6.12635209 -5.41746608 6.12635209 -5 9 C-5.99 9 -6.98 9 -8 9 C-9.70532323 10.94009522 -9.70532323 10.94009522 -11 13 C-11.55901492 9.31050151 -10.79364526 7.29984689 -8.75 4.3125 C-3.92437057 -1.96218529 -3.92437057 -1.96218529 0 0 Z " fill="#D43215" transform="translate(564,435)"/>
<path d="M0 0 C0.99 0.33 1.98 0.66 3 1 C1.54955729 5.10958767 -0.51110752 8.43258745 -3 12 C-3.77772405 9.66682784 -4.42415568 7.38564077 -5 5 C-3.02 5.99 -3.02 5.99 -1 7 C-1.20625 6.21625 -1.4125 5.4325 -1.625 4.625 C-1.74875 3.75875 -1.8725 2.8925 -2 2 C-1.34 1.34 -0.68 0.68 0 0 Z " fill="#D8391C" transform="translate(814,487)"/>
<path d="M0 0 C2.97 0.495 2.97 0.495 6 1 C6 1.66 6 2.32 6 3 C6.99 3.33 7.98 3.66 9 4 C10.38576923 5.62332967 11.72641268 7.28724465 13 9 C8.33138019 7.39516194 3.90741833 5.02509806 0 2 C0 1.34 0 0.68 0 0 Z " fill="#F1D628" transform="translate(282,484)"/>
<path d="M0 0 C0.5534764 2.07553648 1 3.84365964 1 6 C0.34 6 -0.32 6 -1 6 C-1.33 6.99 -1.66 7.98 -2 9 C-3.87617698 10.84499398 -5.92737609 12.3683599 -8 14 C-6.6744419 10.37723685 -5.05653045 7.36494652 -2.875 4.1875 C-2.33617187 3.39730469 -1.79734375 2.60710938 -1.2421875 1.79296875 C-0.83226562 1.20128906 -0.42234375 0.60960937 0 0 Z " fill="#D53518" transform="translate(783,592)"/>
<path d="M0 0 C3.95906817 1.43308135 7.28718181 3.33141949 10.8125 5.625 C11.78832031 6.25664062 12.76414062 6.88828125 13.76953125 7.5390625 C14.50558594 8.02117187 15.24164063 8.50328125 16 9 C14.68 9.33 13.36 9.66 12 10 C11.67 9.01 11.34 8.02 11 7 C9.68 7 8.36 7 7 7 C6.67 6.34 6.34 5.68 6 5 C5.175 4.690625 4.35 4.38125 3.5 4.0625 C2.675 3.711875 1.85 3.36125 1 3 C0.67 2.01 0.34 1.02 0 0 Z " fill="#201C1B" transform="translate(291,492)"/>
<path d="M0 0 C0.33 0.66 0.66 1.32 1 2 C1.66 2 2.32 2 3 2 C1.55746343 5.36591866 -0.33264727 7.51047079 -3 10 C-3.66 9.67 -4.32 9.34 -5 9 C-4.67 7.35 -4.34 5.7 -4 4 C-3.34 4 -2.68 4 -2 4 C-2 3.34 -2 2.68 -2 2 C-1.34 2 -0.68 2 0 2 C0 1.34 0 0.68 0 0 Z " fill="#DF381A" transform="translate(286,390)"/>
<path d="M0 0 C0.99 0 1.98 0 3 0 C3.08114106 1.77007714 3.13925505 3.54122098 3.1875 5.3125 C3.22230469 6.29863281 3.25710937 7.28476562 3.29296875 8.30078125 C3 11 3 11 1.48828125 12.85546875 C0.99714844 13.23316406 0.50601563 13.61085938 0 14 C0 9.33333333 0 4.66666667 0 0 Z " fill="#F0382D" transform="translate(167,441)"/>
<path d="M0 0 C0.66 0.33 1.32 0.66 2 1 C-1.75 4 -1.75 4 -4 4 C-4 4.99 -4 5.98 -4 7 C-4.66 7 -5.32 7 -6 7 C-6.33 7.66 -6.66 8.32 -7 9 C-8.32 9 -9.64 9 -11 9 C-11 8.34 -11 7.68 -11 7 C-8.6640625 5.23828125 -8.6640625 5.23828125 -5.625 3.3125 C-4.62726563 2.66925781 -3.62953125 2.02601563 -2.6015625 1.36328125 C-1.74304688 0.91339844 -0.88453125 0.46351563 0 0 Z " fill="#F2D92F" transform="translate(262,552)"/>
<path d="M0 0 C3.37503669 1.1858237 5.64722731 2.27573689 8 5 C7.01 5 6.02 5 5 5 C5 5.99 5 6.98 5 8 C3.02 7.34 1.04 6.68 -1 6 C-0.01 5.67 0.98 5.34 2 5 C1.34 3.35 0.68 1.7 0 0 Z " fill="#242225" transform="translate(275,482)"/>
<path d="M0 0 C0.33 0 0.66 0 1 0 C1 1.98 1 3.96 1 6 C0.34 6 -0.32 6 -1 6 C-1.66 7.32 -2.32 8.64 -3 10 C-3.99 9.67 -4.98 9.34 -6 9 C-5.02501855 7.4972763 -4.04490611 5.99788037 -3.0625 4.5 C-2.51722656 3.6646875 -1.97195313 2.829375 -1.41015625 1.96875 C-0.94480469 1.3190625 -0.47945312 0.669375 0 0 Z " fill="#D83919" transform="translate(861,482)"/>
<path d="M0 0 C7.92 0 15.84 0 24 0 C23.01 0.99 22.02 1.98 21 3 C20.67 2.67 20.34 2.34 20 2 C18.51361008 1.84344973 17.02050873 1.74933057 15.52734375 1.68359375 C14.17866211 1.62075195 14.17866211 1.62075195 12.80273438 1.55664062 C11.85720703 1.51732422 10.91167969 1.47800781 9.9375 1.4375 C8.98810547 1.39431641 8.03871094 1.35113281 7.06054688 1.30664062 C4.70718647 1.20020724 2.35371646 1.09818992 0 1 C0 0.67 0 0.34 0 0 Z " fill="#F04725" transform="translate(677,612)"/>
<path d="M0 0 C0.66 0.66 1.32 1.32 2 2 C1.625 4.125 1.625 4.125 1 6 C0.01 5.34 -0.98 4.68 -2 4 C-3.67422986 4.29299023 -5.34178227 4.62690101 -7 5 C-7.99 4.67 -8.98 4.34 -10 4 C-10 3.67 -10 3.34 -10 3 C-6.97265625 2.26757812 -6.97265625 2.26757812 -3.9453125 1.53515625 C-1.9414343 1.05153008 -1.9414343 1.05153008 0 0 Z " fill="#FBD61A" transform="translate(164,589)"/>
<path d="M0 0 C0.33 0.99 0.66 1.98 1 3 C1.66 3 2.32 3 3 3 C2.02640613 6.27481575 1.30933359 7.76205109 -1.4375 9.875 C-4 11 -4 11 -7 10 C-5.35 9.34 -3.7 8.68 -2 8 C-2 7.34 -2 6.68 -2 6 C-1.34 6 -0.68 6 0 6 C0 4.02 0 2.04 0 0 Z " fill="#EC3B2A" transform="translate(165,579)"/>
<path d="M0 0 C0 1.65 0 3.3 0 5 C-0.66 5 -1.32 5 -2 5 C-2.33 5.66 -2.66 6.32 -3 7 C-3.66 6.34 -4.32 5.68 -5 5 C-6.65 5.66 -8.3 6.32 -10 7 C-3.48275862 0 -3.48275862 0 0 0 Z " fill="#F4D72F" transform="translate(309,523)"/>
<path d="M0 0 C3.37503669 1.1858237 5.64722731 2.27573689 8 5 C7.236875 4.979375 6.47375 4.95875 5.6875 4.9375 C2.89814214 4.87057159 2.89814214 4.87057159 0 6 C-1.125 2.25 -1.125 2.25 0 0 Z " fill="#24221F" transform="translate(283,487)"/>
<path d="M0 0 C0.66 0.33 1.32 0.66 2 1 C2.67784992 3.33010909 3.34416793 5.66359824 4 8 C4.66 8.66 5.32 9.32 6 10 C2.74456771 9.65120368 1.98126893 8.97866739 -0.25 6.4375 C-0.8275 5.633125 -1.405 4.82875 -2 4 C-1.34 2.68 -0.68 1.36 0 0 Z " fill="#DB4013" transform="translate(236,389)"/>
<path d="M0 0 C-4.75 4.875 -4.75 4.875 -7 6 C-7.33 4.02 -7.66 2.04 -8 0 C-4.71023192 -1.09658936 -3.28696233 -0.79953138 0 0 Z " fill="#DD3819" transform="translate(683,402)"/>
<path d="M0 0 C0.66 0.33 1.32 0.66 2 1 C2 4.3 2 7.6 2 11 C1.34 10.67 0.68 10.34 0 10 C0 9.01 0 8.02 0 7 C-0.66 6.67 -1.32 6.34 -2 6 C-1.34 6 -0.68 6 0 6 C0 4.02 0 2.04 0 0 Z " fill="#F03A31" transform="translate(168,569)"/>
<path d="M0 0 C4.29 0 8.58 0 13 0 C12.67 0.99 12.34 1.98 12 3 C11.319375 2.855625 10.63875 2.71125 9.9375 2.5625 C6.63726918 1.93054091 3.32855574 1.45686059 0 1 C0 0.67 0 0.34 0 0 Z " fill="#EEF4E2" transform="translate(856,467)"/>
<path d="M0 0 C0.99 0.33 1.98 0.66 3 1 C0.55419324 4.66871014 -2.12424268 6.06212134 -6 8 C-4.55746343 4.63408134 -2.66735273 2.48952921 0 0 Z " fill="#DC3C14" transform="translate(241,623)"/>
<path d="M0 0 C2 2 2 2 2 6 C3.65 6.33 5.3 6.66 7 7 C6.360625 7.12375 5.72125 7.2475 5.0625 7.375 C4.0415625 7.684375 4.0415625 7.684375 3 8 C2.67 8.66 2.34 9.32 2 10 C0.68373308 6.38026598 0 3.90432869 0 0 Z " fill="#FDCF25" transform="translate(294,637)"/>
<path d="M0 0 C0.33 1.32 0.66 2.64 1 4 C-0.4375 6.25 -0.4375 6.25 -2 8 C-2.99 7.67 -3.98 7.34 -5 7 C-3.35 4.69 -1.7 2.38 0 0 Z " fill="#D63717" transform="translate(791,580)"/>
<path d="M0 0 C0.99 0.99 1.98 1.98 3 3 C2.01 3.66 1.02 4.32 0 5 C-3.1875 4.125 -3.1875 4.125 -6 3 C-6 2.67 -6 2.34 -6 2 C-4.02 2 -2.04 2 0 2 C0 1.34 0 0.68 0 0 Z " fill="#F9C81B" transform="translate(166,556)"/>
<path d="M0 0 C1.65 0 3.3 0 5 0 C4.67 0.66 4.34 1.32 4 2 C3.34 2 2.68 2 2 2 C1.71125 2.763125 1.4225 3.52625 1.125 4.3125 C0 7 0 7 -2 10 C-1.46274105 6.62294375 -0.88935377 3.303314 0 0 Z " fill="#EED832" transform="translate(224,457)"/>
<path d="M0 0 C0.66 0.33 1.32 0.66 2 1 C-0.97 4.96 -0.97 4.96 -4 9 C-4 6.16032769 -3.59732819 3.76264289 -3 1 C-2.01 0.67 -1.02 0.34 0 0 Z " fill="#D33B1C" transform="translate(829,468)"/>
<path d="M0 0 C1.32 0 2.64 0 4 0 C4 0.99 4 1.98 4 3 C5.43750191 4.68798827 5.43750191 4.68798827 7 6 C3.62496331 4.8141763 1.35277269 3.72426311 -1 1 C-0.67 0.67 -0.34 0.34 0 0 Z " fill="#F6D62D" transform="translate(253,465)"/>
<path d="M0 0 C0.75 1.75 0.75 1.75 1 4 C-0.75 6.25 -0.75 6.25 -3 8 C-3.99 8 -4.98 8 -6 8 C-5.1875 6.0625 -5.1875 6.0625 -4 4 C-3.01 3.67 -2.02 3.34 -1 3 C-0.67 2.01 -0.34 1.02 0 0 Z " fill="#F8F5E9" transform="translate(469,434)"/>
<path d="M0 0 C0.33 1.32 0.66 2.64 1 4 C2.32 3.67 3.64 3.34 5 3 C4.67 3.66 4.34 4.32 4 5 C3.34 5 2.68 5 2 5 C2 5.99 2 6.98 2 8 C1.34 8 0.68 8 0 8 C-0.79953138 4.71303767 -1.09658936 3.28976808 0 0 Z " fill="#FAE5D1" transform="translate(431,413)"/>
<path d="M0 0 C2 1.125 2 1.125 4 3 C4.25 6.1875 4.25 6.1875 4 9 C0.125 4.25 0.125 4.25 -1 2 C-0.67 1.34 -0.34 0.68 0 0 Z " fill="#F6E8D9" transform="translate(750,488)"/>
<path d="M0 0 C0.66 0 1.32 0 2 0 C2 0.66 2 1.32 2 2 C1.34 2 0.68 2 0 2 C-0.33 3.98 -0.66 5.96 -1 8 C-1.99 8 -2.98 8 -4 8 C-2.87548273 5.0280615 -1.77706209 2.66559313 0 0 Z " fill="#D33112" transform="translate(801,564)"/>
<path d="M0 0 C0.66 0 1.32 0 2 0 C2.33 1.65 2.66 3.3 3 5 C1.68 5.33 0.36 5.66 -1 6 C-0.67 4.02 -0.34 2.04 0 0 Z " fill="#F6D522" transform="translate(221,558)"/>
</svg>
